<svg width="36" height="27" viewBox="0 0 36 27" fill="none" xmlns="http://www.w3.org/2000/svg">
<path d="M3.24387e-06 2.23469C3.39563e-06 1.29378 1.18655 0.876269 1.7786 1.60886L8.2214 9.58113C8.62167 10.0764 9.37832 10.0764 9.7786 9.58113L17.2214 0.371469C17.6217 -0.123823 18.3783 -0.123823 18.7786 0.371469L26.2214 9.58113C26.6217 10.0764 27.3783 10.0764 27.7786 9.58113L34.2214 1.60886C34.8134 0.876267 36 1.29378 36 2.23469V22.3459C36 24.9163 33.9107 27 31.3333 27H4.66667C2.08934 27 -4.14591e-07 24.9163 0 22.3459L3.24387e-06 2.23469Z" fill="#03A9F4"/>
</svg>
